<svg width="127" height="49" viewBox="0 0 127 49" fill="none" xmlns="http://www.w3.org/2000/svg">
<path d="M2.29148 31V7.72727H17.7006V11.7841H7.21193V17.3295H16.6778V21.3864H7.21193V31H2.29148ZM19.4102 31V7.72727H28.592C30.3496 7.72727 31.8496 8.04167 33.092 8.67045C34.342 9.29167 35.2928 10.1742 35.9443 11.3182C36.6034 12.4545 36.933 13.7917 36.933 15.3295C36.933 16.875 36.5996 18.2045 35.933 19.3182C35.2663 20.4242 34.3004 21.2727 33.0352 21.8636C31.7777 22.4545 30.2549 22.75 28.467 22.75H22.3193V18.7955H27.6716C28.611 18.7955 29.3913 18.6667 30.0125 18.4091C30.6337 18.1515 31.0958 17.7652 31.3989 17.25C31.7095 16.7348 31.8648 16.0947 31.8648 15.3295C31.8648 14.5568 31.7095 13.9053 31.3989 13.375C31.0958 12.8447 30.6299 12.4432 30.0011 12.1705C29.3799 11.8902 28.5958 11.75 27.6489 11.75H24.3307V31H19.4102ZM31.9784 20.4091L37.7625 31H32.3307L26.6716 20.4091H31.9784ZM43.7307 7.72727V31H38.8102V7.72727H43.7307ZM46.179 31V7.72727H61.8608V11.7841H51.0994V17.3295H61.054V21.3864H51.0994V26.9432H61.9062V31H46.179ZM83.6386 7.72727V31H79.3886L69.2636 16.3523H69.0932V31H64.1727V7.72727H68.4909L78.5364 22.3636H78.7409V7.72727H83.6386ZM94.354 31H86.104V7.72727H94.4222C96.7631 7.72727 98.7782 8.19318 100.468 9.125C102.157 10.0492 103.456 11.3788 104.365 13.1136C105.282 14.8485 105.74 16.9242 105.74 19.3409C105.74 21.7652 105.282 23.8485 104.365 25.5909C103.456 27.3333 102.149 28.6705 100.445 29.6023C98.7479 30.5341 96.7176 31 94.354 31ZM91.0244 26.7841H94.1494C95.604 26.7841 96.8275 26.5265 97.8199 26.0114C98.8199 25.4886 99.5699 24.6818 100.07 23.5909C100.577 22.4924 100.831 21.0758 100.831 19.3409C100.831 17.6212 100.577 16.2159 100.07 15.125C99.5699 14.0341 98.8237 13.2311 97.8313 12.7159C96.8388 12.2008 95.6153 11.9432 94.1608 11.9432H91.0244V26.7841ZM120.41 14.4205C120.319 13.5038 119.929 12.7917 119.24 12.2841C118.55 11.7765 117.615 11.5227 116.433 11.5227C115.63 11.5227 114.952 11.6364 114.399 11.8636C113.846 12.0833 113.422 12.3902 113.126 12.7841C112.838 13.178 112.694 13.625 112.694 14.125C112.679 14.5417 112.766 14.9053 112.956 15.2159C113.153 15.5265 113.422 15.7955 113.762 16.0227C114.103 16.2424 114.497 16.4356 114.944 16.6023C115.391 16.7614 115.869 16.8977 116.376 17.0114L118.467 17.5114C119.482 17.7386 120.414 18.0417 121.262 18.4205C122.111 18.7992 122.846 19.2652 123.467 19.8182C124.088 20.3712 124.569 21.0227 124.91 21.7727C125.259 22.5227 125.437 23.3826 125.444 24.3523C125.437 25.7765 125.073 27.0114 124.353 28.0568C123.641 29.0947 122.611 29.9015 121.262 30.4773C119.922 31.0455 118.304 31.3295 116.41 31.3295C114.531 31.3295 112.895 31.0417 111.501 30.4659C110.115 29.8902 109.031 29.0379 108.251 27.9091C107.478 26.7727 107.073 25.3674 107.035 23.6932H111.797C111.85 24.4735 112.073 25.125 112.467 25.6477C112.869 26.1629 113.403 26.553 114.069 26.8182C114.744 27.0758 115.505 27.2045 116.353 27.2045C117.187 27.2045 117.91 27.0833 118.524 26.8409C119.145 26.5985 119.626 26.2614 119.967 25.8295C120.308 25.3977 120.478 24.9015 120.478 24.3409C120.478 23.8182 120.323 23.3788 120.012 23.0227C119.709 22.6667 119.262 22.3636 118.672 22.1136C118.088 21.8636 117.372 21.6364 116.524 21.4318L113.99 20.7955C112.028 20.3182 110.478 19.572 109.342 18.5568C108.206 17.5417 107.641 16.1742 107.649 14.4545C107.641 13.0455 108.016 11.8144 108.774 10.7614C109.539 9.70833 110.588 8.88636 111.922 8.29545C113.255 7.70454 114.77 7.40909 116.467 7.40909C118.194 7.40909 119.702 7.70454 120.99 8.29545C122.285 8.88636 123.293 9.70833 124.012 10.7614C124.732 11.8144 125.103 13.0341 125.126 14.4205H120.41Z" fill="white"/>
<line y1="42.5" x2="8" y2="42.5" stroke="white"/>
<path d="M10.6692 47V39.7273H12.2069V42.9339H12.3027L14.9199 39.7273H16.763L14.0641 42.9837L16.7949 47H14.9554L12.9632 44.0099L12.2069 44.9332V47H10.6692ZM18.6014 39.7273V47H17.0637V39.7273H18.6014ZM19.0895 40.995V39.7273H25.0625V40.995H22.8359V47H21.3161V40.995H19.0895ZM31.631 42.2734H30.0756C30.0472 42.0722 29.9892 41.8935 29.9016 41.7372C29.814 41.5786 29.7016 41.4437 29.5643 41.3324C29.427 41.2211 29.2683 41.1359 29.0884 41.0767C28.9109 41.0175 28.7179 40.9879 28.5096 40.9879C28.1332 40.9879 27.8053 41.0814 27.5259 41.2685C27.2466 41.4531 27.0299 41.723 26.8761 42.0781C26.7222 42.4309 26.6452 42.8594 26.6452 43.3636C26.6452 43.8821 26.7222 44.3177 26.8761 44.6705C27.0323 45.0232 27.2501 45.2895 27.5295 45.4695C27.8088 45.6494 28.132 45.7393 28.4989 45.7393C28.7049 45.7393 28.8955 45.7121 29.0707 45.6577C29.2482 45.6032 29.4057 45.5239 29.543 45.4197C29.6803 45.3132 29.7939 45.1842 29.8839 45.0327C29.9762 44.8812 30.0401 44.7083 30.0756 44.5142L31.631 44.5213C31.5908 44.8551 31.4902 45.1771 31.3292 45.4872C31.1706 45.795 30.9563 46.0708 30.6864 46.3146C30.4189 46.5561 30.0993 46.7479 29.7276 46.8899C29.3583 47.0296 28.9405 47.0994 28.4741 47.0994C27.8254 47.0994 27.2454 46.9527 26.734 46.6591C26.225 46.3655 25.8226 45.9406 25.5266 45.3842C25.2331 44.8279 25.0863 44.1544 25.0863 43.3636C25.0863 42.5705 25.2354 41.8958 25.5337 41.3395C25.832 40.7831 26.2369 40.3594 26.7482 40.0682C27.2596 39.7746 27.8349 39.6278 28.4741 39.6278C28.8955 39.6278 29.2861 39.687 29.646 39.8054C30.0082 39.9238 30.329 40.0966 30.6083 40.3239C30.8877 40.5488 31.1149 40.8246 31.2901 41.1513C31.4677 41.478 31.5813 41.852 31.631 42.2734ZM32.2337 47V39.7273H33.7713V42.728H36.8928V39.7273H38.4268V47H36.8928V43.9957H33.7713V47H32.2337ZM39.1946 47V39.7273H44.0952V40.995H40.7322V42.728H43.843V43.9957H40.7322V45.7322H44.1094V47H39.1946ZM50.9007 39.7273V47H49.5726L46.4086 42.4226H46.3553V47H44.8176V39.7273H46.1671L49.3063 44.3011H49.3702V39.7273H50.9007ZM55.6873 47.1065C55.1854 47.1065 54.7522 47.0166 54.3876 46.8366C54.023 46.6567 53.7425 46.4129 53.546 46.1051C53.3519 45.795 53.2548 45.4493 53.2548 45.0682C53.2548 44.7841 53.3116 44.532 53.4252 44.3118C53.5389 44.0916 53.6975 43.8892 53.9011 43.7045C54.1047 43.5175 54.3414 43.3317 54.6113 43.147L56.0211 42.2202C56.2034 42.1042 56.3372 41.9822 56.4224 41.8544C56.5076 41.7242 56.5502 41.5833 56.5502 41.4318C56.5502 41.2874 56.4922 41.1536 56.3762 41.0305C56.2602 40.9074 56.0957 40.8471 55.8826 40.8494C55.7406 40.8494 55.6175 40.8814 55.5133 40.9453C55.4092 41.0069 55.3275 41.0885 55.2683 41.1903C55.2115 41.2898 55.1831 41.401 55.1831 41.5241C55.1831 41.6757 55.2257 41.8295 55.3109 41.9858C55.3961 42.142 55.5098 42.3078 55.6518 42.483C55.7939 42.6558 55.9489 42.8428 56.117 43.044L59.5652 47H57.9885L55.112 43.7969C54.9226 43.5814 54.7333 43.3565 54.5439 43.1222C54.3568 42.8854 54.2006 42.6345 54.0751 42.3693C53.9496 42.1018 53.8869 41.8118 53.8869 41.4993C53.8869 41.1465 53.9686 40.8293 54.1319 40.5476C54.2976 40.2659 54.5297 40.0433 54.8279 39.88C55.1262 39.7143 55.4743 39.6314 55.872 39.6314C56.2602 39.6314 56.5952 39.7107 56.877 39.8693C57.161 40.0256 57.3788 40.2339 57.5304 40.4943C57.6842 40.7524 57.7612 41.0365 57.7612 41.3466C57.7612 41.6899 57.676 42.0012 57.5055 42.2805C57.3374 42.5575 57.1007 42.8061 56.7953 43.0263L55.3109 44.0952C55.1097 44.242 54.9605 44.3923 54.8635 44.5462C54.7688 44.6977 54.7214 44.8433 54.7214 44.983C54.7214 45.1558 54.764 45.3108 54.8493 45.4482C54.9345 45.5855 55.0552 45.6944 55.2115 45.7749C55.3677 45.853 55.5512 45.892 55.7619 45.892C56.0176 45.892 56.2697 45.834 56.5183 45.718C56.7692 45.5997 56.9965 45.4328 57.2001 45.2173C57.4061 44.9995 57.5706 44.7415 57.6937 44.4432C57.8168 44.1449 57.8784 43.8146 57.8784 43.4524H59.1319C59.1319 43.8975 59.0834 44.2988 58.9863 44.6562C58.8893 45.0114 58.7543 45.3215 58.5815 45.5866C58.4087 45.8494 58.211 46.0649 57.9885 46.233C57.9174 46.2779 57.8488 46.3205 57.7825 46.3608C57.7162 46.401 57.6475 46.4437 57.5765 46.4886C57.3066 46.7064 57.0048 46.8639 56.671 46.9609C56.3395 47.058 56.0117 47.1065 55.6873 47.1065ZM67.9553 42.2734H66.3999C66.3714 42.0722 66.3134 41.8935 66.2259 41.7372C66.1383 41.5786 66.0258 41.4437 65.8885 41.3324C65.7512 41.2211 65.5926 41.1359 65.4126 41.0767C65.2351 41.0175 65.0421 40.9879 64.8338 40.9879C64.4574 40.9879 64.1295 41.0814 63.8501 41.2685C63.5708 41.4531 63.3542 41.723 63.2003 42.0781C63.0464 42.4309 62.9695 42.8594 62.9695 43.3636C62.9695 43.8821 63.0464 44.3177 63.2003 44.6705C63.3565 45.0232 63.5743 45.2895 63.8537 45.4695C64.133 45.6494 64.4562 45.7393 64.8232 45.7393C65.0291 45.7393 65.2197 45.7121 65.3949 45.6577C65.5724 45.6032 65.7299 45.5239 65.8672 45.4197C66.0045 45.3132 66.1181 45.1842 66.2081 45.0327C66.3004 44.8812 66.3643 44.7083 66.3999 44.5142L67.9553 44.5213C67.915 44.8551 67.8144 45.1771 67.6534 45.4872C67.4948 45.795 67.2805 46.0708 67.0107 46.3146C66.7431 46.5561 66.4235 46.7479 66.0518 46.8899C65.6825 47.0296 65.2647 47.0994 64.7983 47.0994C64.1496 47.0994 63.5696 46.9527 63.0582 46.6591C62.5492 46.3655 62.1468 45.9406 61.8509 45.3842C61.5573 44.8279 61.4105 44.1544 61.4105 43.3636C61.4105 42.5705 61.5597 41.8958 61.858 41.3395C62.1563 40.7831 62.5611 40.3594 63.0724 40.0682C63.5838 39.7746 64.1591 39.6278 64.7983 39.6278C65.2197 39.6278 65.6103 39.687 65.9702 39.8054C66.3324 39.9238 66.6532 40.0966 66.9325 40.3239C67.2119 40.5488 67.4392 40.8246 67.6143 41.1513C67.7919 41.478 67.9055 41.852 67.9553 42.2734ZM75.2411 43.3636C75.2411 44.1567 75.0908 44.8314 74.7901 45.3878C74.4918 45.9441 74.0846 46.3691 73.5685 46.6626C73.0548 46.9538 72.4772 47.0994 71.8356 47.0994C71.1893 47.0994 70.6093 46.9527 70.0955 46.6591C69.5818 46.3655 69.1758 45.9406 68.8775 45.3842C68.5792 44.8279 68.43 44.1544 68.43 43.3636C68.43 42.5705 68.5792 41.8958 68.8775 41.3395C69.1758 40.7831 69.5818 40.3594 70.0955 40.0682C70.6093 39.7746 71.1893 39.6278 71.8356 39.6278C72.4772 39.6278 73.0548 39.7746 73.5685 40.0682C74.0846 40.3594 74.4918 40.7831 74.7901 41.3395C75.0908 41.8958 75.2411 42.5705 75.2411 43.3636ZM73.6822 43.3636C73.6822 42.8499 73.6052 42.4167 73.4513 42.0639C73.2998 41.7112 73.0856 41.4437 72.8086 41.2614C72.5316 41.0791 72.2073 40.9879 71.8356 40.9879C71.4639 40.9879 71.1396 41.0791 70.8626 41.2614C70.5856 41.4437 70.3701 41.7112 70.2163 42.0639C70.0647 42.4167 69.989 42.8499 69.989 43.3636C69.989 43.8774 70.0647 44.3106 70.2163 44.6634C70.3701 45.0161 70.5856 45.2836 70.8626 45.4659C71.1396 45.6482 71.4639 45.7393 71.8356 45.7393C72.2073 45.7393 72.5316 45.6482 72.8086 45.4659C73.0856 45.2836 73.2998 45.0161 73.4513 44.6634C73.6052 44.3106 73.6822 43.8774 73.6822 43.3636ZM82.2971 42.2734H80.7417C80.7132 42.0722 80.6552 41.8935 80.5676 41.7372C80.4801 41.5786 80.3676 41.4437 80.2303 41.3324C80.093 41.2211 79.9344 41.1359 79.7544 41.0767C79.5769 41.0175 79.3839 40.9879 79.1756 40.9879C78.7992 40.9879 78.4713 41.0814 78.1919 41.2685C77.9126 41.4531 77.696 41.723 77.5421 42.0781C77.3882 42.4309 77.3113 42.8594 77.3113 43.3636C77.3113 43.8821 77.3882 44.3177 77.5421 44.6705C77.6983 45.0232 77.9161 45.2895 78.1955 45.4695C78.4748 45.6494 78.798 45.7393 79.165 45.7393C79.3709 45.7393 79.5615 45.7121 79.7367 45.6577C79.9142 45.6032 80.0717 45.5239 80.209 45.4197C80.3463 45.3132 80.4599 45.1842 80.5499 45.0327C80.6422 44.8812 80.7061 44.7083 80.7417 44.5142L82.2971 44.5213C82.2568 44.8551 82.1562 45.1771 81.9952 45.4872C81.8366 45.795 81.6223 46.0708 81.3525 46.3146C81.0849 46.5561 80.7653 46.7479 80.3936 46.8899C80.0243 47.0296 79.6065 47.0994 79.1401 47.0994C78.4914 47.0994 77.9114 46.9527 77.4 46.6591C76.891 46.3655 76.4886 45.9406 76.1926 45.3842C75.8991 44.8279 75.7523 44.1544 75.7523 43.3636C75.7523 42.5705 75.9015 41.8958 76.1998 41.3395C76.498 40.7831 76.9029 40.3594 77.4142 40.0682C77.9256 39.7746 78.5009 39.6278 79.1401 39.6278C79.5615 39.6278 79.9521 39.687 80.312 39.8054C80.6742 39.9238 80.995 40.0966 81.2743 40.3239C81.5537 40.5488 81.781 40.8246 81.9561 41.1513C82.1337 41.478 82.2473 41.852 82.2971 42.2734ZM82.8997 47V39.7273H84.4373V42.9339H84.5332L87.1504 39.7273H88.9934L86.2946 42.9837L89.0254 47H87.1859L85.1937 44.0099L84.4373 44.9332V47H82.8997ZM89.0172 40.995V39.7273H94.9902V40.995H92.7637V47H91.2438V40.995H89.0172ZM95.8388 47H94.1911L96.7017 39.7273H98.6832L101.19 47H99.5426L97.7209 41.3892H97.6641L95.8388 47ZM95.7358 44.1413H99.6278V45.3416H95.7358V44.1413ZM103.103 39.7273V47H101.566V39.7273H103.103ZM103.868 47V39.7273H105.406V45.7322H108.524V47H103.868ZM112.988 41.8189C112.959 41.5324 112.837 41.3099 112.622 41.1513C112.406 40.9927 112.114 40.9134 111.745 40.9134C111.494 40.9134 111.282 40.9489 111.109 41.0199C110.936 41.0885 110.804 41.1844 110.711 41.3075C110.621 41.4306 110.576 41.5703 110.576 41.7266C110.572 41.8568 110.599 41.9704 110.658 42.0675C110.72 42.1645 110.804 42.2486 110.91 42.3196C111.017 42.3883 111.14 42.4486 111.279 42.5007C111.419 42.5504 111.568 42.593 111.727 42.6286L112.38 42.7848C112.698 42.8558 112.989 42.9505 113.254 43.0689C113.519 43.1873 113.749 43.3329 113.943 43.5057C114.137 43.6785 114.287 43.8821 114.394 44.1165C114.503 44.3509 114.558 44.6196 114.561 44.9226C114.558 45.3677 114.445 45.7536 114.22 46.0803C113.997 46.4046 113.675 46.6567 113.254 46.8366C112.835 47.0142 112.329 47.103 111.738 47.103C111.15 47.103 110.639 47.013 110.203 46.8331C109.77 46.6532 109.432 46.3868 109.188 46.0341C108.946 45.679 108.82 45.2398 108.808 44.7166H110.296C110.312 44.9605 110.382 45.1641 110.505 45.3274C110.631 45.4884 110.798 45.6103 111.006 45.6932C111.217 45.7737 111.455 45.8139 111.72 45.8139C111.98 45.8139 112.206 45.776 112.398 45.7003C112.592 45.6245 112.743 45.5192 112.849 45.3842C112.956 45.2493 113.009 45.0942 113.009 44.919C113.009 44.7557 112.96 44.6184 112.863 44.5071C112.769 44.3958 112.629 44.3011 112.444 44.223C112.262 44.1449 112.038 44.0739 111.773 44.0099L110.981 43.8111C110.368 43.6619 109.884 43.4287 109.529 43.1115C109.174 42.7943 108.997 42.367 109 41.8295C108.997 41.3892 109.114 41.0045 109.351 40.6754C109.59 40.3464 109.918 40.0895 110.335 39.9048C110.752 39.7202 111.225 39.6278 111.755 39.6278C112.295 39.6278 112.766 39.7202 113.169 39.9048C113.574 40.0895 113.888 40.3464 114.113 40.6754C114.338 41.0045 114.454 41.3857 114.461 41.8189H112.988Z" fill="white"/>
<line x1="117" y1="42.5" x2="125" y2="42.5" stroke="white"/>
</svg>
